<svg width="18" height="18" viewBox="0 0 18 18" fill="none" xmlns="http://www.w3.org/2000/svg">
<g clip-path="url(#clip0_128_2)">
<path d="M0.3562 11.0184L8.33509 3.25346C8.43008 3.16129 8.53298 3.09616 8.6438 3.05806C8.75462 3.01935 8.87335 3 9 3C9.12665 3 9.24538 3.01935 9.3562 3.05806C9.46702 3.09616 9.56992 3.16129 9.66491 3.25346L17.6675 11.0184C17.8892 11.2335 18 11.5023 18 11.8249C18 12.1475 17.8813 12.424 17.6438 12.6544C17.4063 12.8848 17.1293 13 16.8127 13C16.496 13 16.219 12.8848 15.9815 12.6544L9 5.88018L2.01847 12.6544C1.79683 12.8694 1.5239 12.977 1.19968 12.977C0.874828 12.977 0.593667 12.8618 0.3562 12.6313C0.118733 12.4009 -9.5417e-07 12.1321 -9.5417e-07 11.8249C-9.5417e-07 11.5177 0.118733 11.2488 0.3562 11.0184V11.0184Z" fill="#C3C3C3"/>
</g>
<defs>
<clipPath id="clip0_128_2">
<rect width="18" height="18" fill="white"/>
</clipPath>
</defs>
</svg>
